<svg width="96" height="96" viewBox="0 0 96 96" xmlns="http://www.w3.org/2000/svg" role="img" aria-label="Talmudic comic strip icon">
  <defs>
    <linearGradient id="g" x1="0" y1="0" x2="1" y2="1">
      <stop offset="0%" stop-color="#f97316" />
      <stop offset="100%" stop-color="#7c3aed" />
    </linearGradient>
  </defs>
  <rect width="96" height="96" rx="18" ry="18" fill="#f9f5ff" />
  <rect x="14" y="14" width="68" height="50" rx="8" fill="url(#g)" />
  <line x1="14" y1="34" x2="82" y2="34" stroke="#fff" stroke-width="3" opacity="0.4" />
  <line x1="14" y1="54" x2="82" y2="54" stroke="#fff" stroke-width="3" opacity="0.4" />
  <rect x="22" y="22" width="18" height="18" rx="3" fill="#fff" opacity="0.8" />
  <rect x="40" y="22" width="18" height="18" rx="3" fill="#fff" opacity="0.6" />
  <rect x="58" y="22" width="18" height="18" rx="3" fill="#fff" opacity="0.4" />
  <path d="M30 70c8 10 36 10 44 0 2 6-6 16-22 16S28 76 30 70z" fill="#111827" opacity="0.15" />
  <path d="M24 64l-4 16 12-6 4 8 10-18" stroke="#7c3aed" stroke-width="3" stroke-linecap="round" stroke-linejoin="round" fill="none" />
</svg>
